<svg width="30" height="28" viewBox="0 0 30 28" fill="none" xmlns="http://www.w3.org/2000/svg">
<path d="M7.31787 24.7251H20.5459" stroke="#616161" stroke-linejoin="round"/>
<path d="M13.1935 19.8986L8.77832 22.3321L9.07817 17.5583L18.33 3.43156C18.3536 3.39504 18.3848 3.36323 18.4216 3.33795C18.4584 3.31267 18.5003 3.29443 18.5447 3.28426C18.5891 3.27408 18.6352 3.27219 18.6804 3.27867C18.7256 3.28516 18.7689 3.2999 18.808 3.32205L22.3323 5.35001C22.3714 5.37208 22.4055 5.40113 22.4326 5.43551C22.4597 5.46989 22.4792 5.50892 22.4901 5.55036C22.501 5.59181 22.5031 5.63485 22.4961 5.67703C22.4892 5.7192 22.4734 5.75969 22.4496 5.79616L13.1935 19.8986Z" stroke="#616161" stroke-linecap="round" stroke-linejoin="round"/>
<path d="M16.8569 5.67859L20.9722 8.03102" stroke="#616161" stroke-linecap="round" stroke-linejoin="round"/>
<path d="M9.07812 17.5463L13.1934 19.8987" stroke="#616161" stroke-linecap="round" stroke-linejoin="round"/>
</svg>
